<?xml version="1.0" encoding="UTF-8"?>
<svg id="Layer_1" data-name="Layer 1" xmlns="http://www.w3.org/2000/svg" viewBox="0 0 1227.04 274">
  <defs>
    <style>
      .cls-1, .cls-2 {
        fill: #fff;
      }

      .cls-3 {
        fill: #6B7280;
      }

      .cls-2 {
        stroke: #231f20;
        stroke-miterlimit: 10;
      }
    </style>
  </defs>
  <path class="cls-3" d="m385.37,82.92v82.92h28.76c15.82,0,28.76.38,28.76.77,0,.48-.96,1.73-2.11,2.88-1.92,1.73-3.36,1.92-11.79,1.92h-9.59l-.29,3.45-.29,3.45h-79.47V13.42l-3.55-.19c-2.01-.1-6.42-.29-9.87-.38-10.93-.48-35.85,1.44-50.52,3.93-44.96,7.67-91.84,26.36-117.91,47.16-7.57,6.04-20.32,18.5-21.86,21.38-.67,1.34-3.45,10.54-6.23,20.61-2.78,9.97-5.37,18.88-5.85,19.75-.58,1.15-3.07,1.63-10.64,2.11-18.98,1.25-44.19,6.23-63.56,12.65-10.93,3.64-28.18,11.41-32.98,14.86-1.53,1.05-3.07,1.92-3.36,1.92s-.58-4.31-.58-9.68v-9.59l-2.4.29-2.49.29-.19,28.09-.19,27.99h5.37l-.29,9.78-.29,9.87-5.94.29-6.04.29v32.5h73.34l2.78,5.27c5.46,10.45,17.54,18.5,30.96,20.61,18.02,2.88,37.19-6.23,44.96-21.38l2.3-4.51,64.04-.1c35.18-.1,67.3-.29,71.51-.48l7.48-.29.19-7,.1-7,10.83-.29,10.74-.29v-11.41h39.3v12.94c0,7.57.38,12.94.96,12.94.48,0,1.73,1.92,2.78,4.31,4.7,10.74,18.21,20.23,31.83,22.53,17.93,3.07,38.15-6.61,45.53-21.67l2.49-5.18h4.7q4.7,0,7.19,4.98c3.26,6.42,11.31,14.28,17.93,17.54,2.88,1.34,8.72,3.16,13.04,4.03,7.09,1.44,8.44,1.44,15.53,0,4.31-.86,10.26-2.68,13.13-4.22,6.61-3.36,14.28-10.74,17.54-17.06,2.4-4.7,2.49-4.79,7-4.79h4.6l-.58-11.5c-.38-6.33-.86-13.42-1.25-15.82-.29-2.88-.19-4.03.48-3.36.48.48,1.63,6.52,2.49,13.42,2.4,18.69,2.11,17.73,5.94,17.73,1.82,0,3.26-.19,3.26-.38s-.86-6.9-1.92-14.95c-1.63-11.79-2.4-15.15-4.12-17.26-1.15-1.44-9.2-10.26-17.93-19.56l-15.82-16.87h-27.23l-.29-3.45-.29-3.55-9.68.19c-9.39.19-9.68.1-11.22-2.2-.96-1.34-1.63-2.68-1.63-2.97s20.61-.38,45.82-.29l45.73.29.29,17.93.19,18.02,225.57.19,225.47.29-6.71,7.19c-3.64,3.93-8.44,9.01-10.54,11.31l-3.83,4.12,12.46-.1c6.9-.1,12.75-.1,13.04-.1.29.1.19,2.4-.19,5.08-1.15,6.81.48,15.24,4.22,22.14,8.05,15.24,28.09,24.16,46.01,20.51,22.05-4.51,35.37-20.51,33.94-40.93l-.48-7.19h6.14v9.59c-.1,8.92.1,10.07,2.97,15.91,8.05,16.3,27.61,26.07,46.21,22.91,14.67-2.49,28.09-12.56,32.69-24.64,2.11-5.46,2.97-14.76,1.92-20.8l-.48-2.78,12.85.19,12.75.19-10.74-11.31-10.64-11.31,11.98-.29,12.08-.29.19-17.93.29-17.93,7.48-.29,7.38-.29V0H385.37v82.92Z"/>
  <g>
    <path class="cls-2" d="m583.67,66.63l.04-51.45,185.74.05c33.57,9.39,35.43,35,35.43,35v16.4h-36.92s-.57-11.73-16.39-16.53l-127.44.39.14,16.14h-40.6Z"/>
    <path class="cls-2" d="m583.67,167.06c-.26,13.5,14.8,17.13,14.8,17.13h169.06c35.07-6.49,37.35-35.31,37.35-35.31v-14.02h-37.35c-3.7,11.42-15.11,14.02-15.11,14.02h-128.87v-14.02h-39.89s.26,18.69,0,32.19h0Z"/>
    <path class="cls-2" d="m829.41,134.87v14.8s2.85,25.7,36.21,34.53h148.54s32.79-10.12,36.49-34.01v-15.32h-37.64s0,8.31-16.54,14.8h-115.18s-13.68-4.93-14.54-14.8h-37.35Z"/>
    <path class="cls-2" d="m1013.87,66.63h36.78v-17.18s-7.98-29.85-36.35-33.1l-148.96-1.17s-22.24,2.6-35.92,30.89v20.55h36.78s2.9-15.06,18.84-17.16l112.31-.02s16.54,6.06,16.54,17.18h0Z"/>
    <path class="cls-2" d="m633.69,87.39v23.37c0,.92-.81,1.66-1.82,1.66h-25.45c-1.01,0-1.82-.74-1.82-1.66v-23.37c0-.92.81-1.66,1.82-1.66h25.45c1.01,0,1.82.74,1.82,1.66Zm14.54-12.04h-56.52s-7.98.52-9.69,8.89v29.59s2.57,6.88,9.66,8.79h53.35s8.55-1.07,11.41-8.99v-30.7s-3.35-6.95-8.2-7.59h0Z"/>
    <path class="cls-2" d="m667.72,75.51h20.95v36.77h37.17s1.5.91,1.5,1.62v7.2s-.47,1.41-1.55,1.41h-49.98s-6.29-2.17-8.06-7.34l-.02-39.66h0Z"/>
    <path class="cls-2" d="m738.75,120.99v-43.96c0-.84.75-1.52,1.67-1.52h61.31c.12,0,.24.01.36.04,1.24.24,8.06,1.87,9.52,8.67.02.11.03.22.03.33v11.34c0,.17-.02.32-.08.48-.35.91-1.93,4.07-7.79,6.84-.24.11-.52.18-.8.18h-36.68c-.93,0-1.67-.68-1.67-1.52v-5.71c0-.84.75-1.52,1.67-1.52h22.59c.93,0,1.67-.68,1.67-1.52v-5.89c0-.85-.76-1.53-1.69-1.52l-27.44.17c-.92,0-1.66.69-1.66,1.52v33.61c0,.84-.75,1.52-1.67,1.52h-17.68c-.93,0-1.67-.68-1.67-1.52h0Z"/>
    <path class="cls-2" d="m822.8,84.5v29.02c0,.12.02.24.07.35.45,1.07,3.15,6.87,9.49,8.6.11.03.24.05.36.05l55.15-.03c.61,0,1.11-.46,1.11-1.01v-8.22c0-.56-.5-1.02-1.12-1.01l-41.34.04c-.61,0-1.11-.45-1.12-1.01l-.03-6.84c0-.56.5-1.02,1.11-1.02h38.2c.62,0,1.11-.46,1.11-1.01v-6.78c0-.56-.5-1.01-1.11-1.01h-38.16c-.62,0-1.11-.46-1.11-1.01v-6.84c0-.56.5-1.01,1.11-1.01h41.34c.62,0,1.11-.46,1.11-1.01v-8.18c0-.56-.5-1.01-1.11-1.01h-55.19c-.12,0-.25.02-.37.06-1.07.35-6.6,2.44-9.42,8.52-.06.13-.09.28-.09.42v-.02Z"/>
    <path class="cls-2" d="m900.26,85.66l.19,26.3s0,.09,0,.13c.1.82,1.34,8.65,11.15,10.4.09.02.2.03.3.03h52.79c.17,0,.32-.03.48-.08,1.25-.44,6.99-2.71,9.45-8.59.06-.15.09-.31.09-.46v-17.59c0-.67-.59-1.21-1.33-1.21h-20.05c-.73,0-1.33.54-1.33,1.21v15.14c0,.67-.59,1.21-1.33,1.21h-26.37c-.73,0-1.33-.54-1.33-1.21v-23.97c0-.67.59-1.21,1.33-1.21h49.09c.73,0,1.33-.54,1.33-1.21v-7.87c0-.67-.59-1.21-1.33-1.21h-63.14c-.18,0-.35.03-.51.09-1.36.51-7.68,3.19-9.44,9.78-.03.11-.04.22-.04.33h0Z"/>
    <path class="cls-2" d="m984.36,121.51v-1.45c0-.16.04-.32.12-.46l23.98-42.25c.13-.23.36-.41.63-.49l4.32-1.33c.11-.04.23-.05.36-.05h20.43c.13,0,.26.02.39.06l4.12,1.38c.25.09.47.25.59.47l23.83,40.46c.08.15.13.31.13.48v3.2c0,.56-.5,1.01-1.11,1.01h-20.58c-.42,0-.81-.22-1-.56l-7.44-13.66c-.19-.34-.57-.56-1-.56h-16c-.62,0-1.12-.46-1.11-1.03l.1-5.2c0-.55.51-.99,1.11-.99h11.55c.83,0,1.37-.8.99-1.47l-7.26-12.75c-.19-.33-.57-.55-.99-.55h-1.41c-.43,0-.81.22-1,.57l-18.99,35.65c-.18.35-.57.57-1,.57h-12.66c-.61,0-1.11-.45-1.11-1.01h0Z"/>
  </g>
  <path class="cls-1" d="m146.65,122.63h66.71v-55.99s-57.18,10.15-66.71,55.99Z"/>
</svg>