<?xml version="1.0" encoding="UTF-8"?>
<svg id="Layer_2" data-name="Layer 2" xmlns="http://www.w3.org/2000/svg" viewBox="0 0 972.71 375.75">
  <defs>
    <style>
      .cls-1 {
        fill: #fff;
        stroke: #231f20;
        stroke-miterlimit: 10;
      }
    </style>
  </defs>
  <path class="cls-1" d="m3.86,114.58L3.95.5l375.04.1c67.78,20.82,71.53,77.62,71.53,77.62v36.36h-74.55s-1.15-26-33.1-36.65l-257.32.86.29,35.79H3.86Z"/>
  <path class="cls-1" d="m3.86,337.26c-.53,29.93,29.89,37.99,29.89,37.99h341.36c70.81-14.39,75.41-78.29,75.41-78.29v-31.09h-75.41c-7.48,25.33-30.51,31.09-30.51,31.09H84.4v-31.09H3.86s.53,41.45,0,71.38Z"/>
  <path class="cls-1" d="m500.03,265.88v32.81s5.76,56.99,73.11,76.56h299.92s66.2-22.45,73.68-75.41v-33.96h-75.99s0,18.42-33.39,32.81h-232.56s-27.63-10.94-29.36-32.81h-75.41Z"/>
  <path class="cls-1" d="m872.47,114.58h74.26v-38.09s-16.12-66.2-73.4-73.4L572.56.5s-44.9,5.76-72.53,68.5v45.57h74.26s5.85-33.39,38.04-38.04l226.76-.05s33.39,13.43,33.39,38.09Z"/>
  <path class="cls-1" d="m104.84,160.6v51.81c0,2.03-1.64,3.67-3.67,3.67h-51.38c-2.03,0-3.67-1.64-3.67-3.67v-51.81c0-2.03,1.64-3.67,3.67-3.67h51.38c2.03,0,3.67,1.64,3.67,3.67Zm29.36-26.7H20.07s-16.12,1.15-19.57,19.72v65.62s5.18,15.25,19.5,19.5h107.72s17.27-2.37,23.03-19.93v-68.07s-6.76-15.4-16.55-16.84Z"/>
  <path class="cls-1" d="m173.56,134.27h42.31v81.53h75.05s3.02,2.01,3.02,3.6v15.97s-.94,3.13-3.13,3.13h-100.92s-12.7-4.82-16.28-16.28l-.05-87.95Z"/>
  <path class="cls-1" d="m316.97,235.12v-97.47c0-1.87,1.51-3.38,3.38-3.38h123.8c.25,0,.48.03.72.08,2.51.54,16.28,4.15,19.22,19.23.05.24.07.49.07.74v25.14c0,.37-.05.72-.17,1.07-.7,2.01-3.89,9.02-15.72,15.16-.49.25-1.06.39-1.61.39h-74.07c-1.87,0-3.38-1.51-3.38-3.38v-12.66c0-1.87,1.51-3.38,3.38-3.38h45.62c1.87,0,3.38-1.51,3.38-3.38v-13.07c0-1.88-1.53-3.39-3.41-3.38l-55.41.38c-1.86.01-3.36,1.52-3.36,3.38v74.53c0,1.87-1.51,3.38-3.38,3.38h-35.69c-1.87,0-3.38-1.51-3.38-3.38Z"/>
  <path class="cls-1" d="m486.69,154.2v64.35c0,.27.04.53.14.78.91,2.37,6.37,15.23,19.17,19.06.23.07.48.1.72.1l111.36-.06c1.24,0,2.25-1.01,2.25-2.25v-18.23c0-1.25-1.01-2.26-2.26-2.25l-83.48.09c-1.24,0-2.25-1-2.26-2.24l-.07-15.17c0-1.25,1.01-2.27,2.25-2.27h77.13c1.25,0,2.25-1.01,2.25-2.25v-15.04c0-1.25-1.01-2.25-2.25-2.25h-77.04c-1.25,0-2.25-1.01-2.25-2.25v-15.16c0-1.25,1.01-2.25,2.25-2.25h83.47c1.25,0,2.25-1.01,2.25-2.25v-18.13c0-1.25-1.01-2.25-2.25-2.25h-111.44c-.25,0-.5.04-.74.13-2.16.78-13.33,5.4-19.02,18.9-.12.29-.19.62-.19.94Z"/>
  <path class="cls-1" d="m643.08,156.78l.38,58.31c0,.1,0,.19.02.29.21,1.82,2.7,19.19,22.52,23.07.19.04.4.06.6.06h106.59c.34,0,.65-.06.97-.18,2.53-.97,14.11-6.02,19.08-19.04.12-.33.19-.68.19-1.03v-39c0-1.48-1.2-2.69-2.69-2.69h-40.49c-1.48,0-2.69,1.2-2.69,2.69v33.58c0,1.48-1.2,2.69-2.69,2.69h-53.25c-1.48,0-2.69-1.2-2.69-2.69v-53.15c0-1.48,1.2-2.69,2.69-2.69h99.11c1.48,0,2.69-1.2,2.69-2.69v-17.46c0-1.48-1.2-2.69-2.69-2.69h-127.48c-.36,0-.7.07-1.03.2-2.75,1.13-15.51,7.07-19.06,21.69-.06.24-.09.49-.08.74Z"/>
  <path class="cls-1" d="m812.89,236.26v-3.22c0-.36.09-.71.25-1.03l48.41-93.69c.27-.52.72-.91,1.27-1.09l8.72-2.95c.23-.08.47-.12.72-.12h41.25c.26,0,.53.05.78.14l8.32,3.07c.51.19.94.56,1.2,1.04l48.12,89.71c.17.33.27.69.27,1.06v7.09c0,1.24-1,2.24-2.24,2.24h-41.56c-.85,0-1.63-.48-2.01-1.25l-15.03-30.29c-.38-.76-1.16-1.25-2.01-1.25h-32.31c-1.25,0-2.26-1.03-2.24-2.28l.21-11.54c.02-1.22,1.02-2.2,2.24-2.2h23.33c1.68,0,2.76-1.78,1.99-3.27l-14.66-28.28c-.39-.74-1.15-1.21-1.99-1.21h-2.85c-.86,0-1.64.49-2.02,1.26l-38.35,79.04c-.37.77-1.16,1.26-2.02,1.26h-25.57c-1.24,0-2.24-1-2.24-2.24Z"/>
</svg>