<?xml version="1.0" encoding="UTF-8"?>
<svg xmlns="http://www.w3.org/2000/svg" viewBox="0 0 989.01 381.43">
  <defs>
    <style>
      .cls-1 {
        fill: #2a5699;
      }

      .cls-2 {
        fill: #231f20;
        mix-blend-mode: color;
      }

      .cls-3 {
        fill: none;
        isolation: isolate;
      }
    </style>
  </defs>
  <g class="cls-3">
    <g id="Layer_2" data-name="Layer 2">
      <g>
        <path class="cls-1" d="m14.68,116.11l.1-116.11,381.72.1c68.99,21.19,72.8,79,72.8,79v37.01h-75.88s-1.17-26.46-33.69-37.3l-261.9.88.29,36.42H14.68Zm0,226.65c-.54,30.47,30.42,38.67,30.42,38.67h347.44c72.07-14.65,76.75-79.68,76.75-79.68v-31.64h-76.75c-7.62,25.78-31.05,31.64-31.05,31.64H96.65v-31.64H14.68s.54,42.19,0,72.65Zm505-72.65v33.4s5.86,58.01,74.41,77.93h305.26s67.38-22.85,75-76.75v-34.57h-77.34s0,18.75-33.98,33.4h-236.71s-28.12-11.13-29.88-33.4h-76.75Zm379.08-154h75.58v-38.77s-16.41-67.38-74.7-74.7L593.51,0s-45.7,5.86-73.82,69.72v46.38h75.58s5.96-33.98,38.72-38.72l230.8-.05s33.98,13.67,33.98,38.77Z"/>
        <path class="cls-2" d="m106.2,164.53v52.73c0,2.06-1.67,3.74-3.74,3.74h-52.29c-2.06,0-3.74-1.67-3.74-3.74v-52.73c0-2.06,1.67-3.74,3.74-3.74h52.29c2.06,0,3.74,1.67,3.74,3.74Zm29.88-27.17H19.92s-16.41,1.17-19.92,20.07v66.79s5.27,15.53,19.85,19.85h109.64s17.58-2.42,23.44-20.29v-69.28s-6.88-15.67-16.84-17.14Zm40.12,89.88c3.64,11.66,16.57,16.57,16.57,16.57h102.72c2.23,0,3.19-3.19,3.19-3.19v-16.26c0-1.61-3.08-3.66-3.08-3.66h-76.39v-82.98h-43.06l.05,89.52Zm149.35,16.57h36.33c1.9,0,3.44-1.54,3.44-3.44v-75.86c0-1.89,1.53-3.43,3.42-3.44l56.39-.39c1.91-.01,3.47,1.53,3.47,3.44v13.31c0,1.9-1.54,3.44-3.44,3.44h-46.43c-1.9,0-3.44,1.54-3.44,3.44v12.89c0,1.9,1.54,3.44,3.44,3.44h75.39c.56,0,1.14-.14,1.64-.4,12.04-6.25,15.28-13.38,16-15.43.12-.36.18-.72.18-1.09v-25.59c0-.25-.02-.51-.07-.75-2.99-15.35-17-19.03-19.56-19.58-.25-.05-.48-.08-.74-.08h-126c-1.9,0-3.44,1.54-3.44,3.44v99.2c0,1.9,1.54,3.44,3.44,3.44Zm169.3-85.8v65.5c0,.28.04.54.14.8.93,2.41,6.48,15.5,19.52,19.4.24.07.49.1.73.1l113.35-.06c1.27,0,2.29-1.03,2.29-2.29v-18.55c0-1.27-1.03-2.3-2.3-2.29l-84.96.09c-1.26,0-2.29-1.02-2.3-2.28l-.08-15.44c0-1.27,1.02-2.31,2.29-2.31h78.5c1.27,0,2.29-1.03,2.29-2.29v-15.31c0-1.27-1.03-2.29-2.29-2.29h-78.41c-1.27,0-2.29-1.03-2.29-2.29v-15.43c0-1.27,1.03-2.29,2.29-2.29h84.96c1.27,0,2.29-1.03,2.29-2.29v-18.46c0-1.27-1.03-2.29-2.29-2.29h-113.43c-.26,0-.51.04-.76.13-2.2.8-13.57,5.5-19.36,19.23-.13.3-.19.63-.19.95Zm159.17,2.62l.39,59.35c0,.1,0,.19.02.29.21,1.85,2.75,19.53,22.92,23.48.2.04.41.06.61.06h108.49c.34,0,.66-.06.98-.18,2.57-.98,14.36-6.13,19.42-19.38.13-.33.19-.7.19-1.05v-39.69c0-1.51-1.22-2.73-2.73-2.73h-41.21c-1.51,0-2.73,1.22-2.73,2.73v34.18c0,1.51-1.22,2.73-2.73,2.73h-54.2c-1.51,0-2.73-1.22-2.73-2.73v-54.1c0-1.51,1.22-2.73,2.73-2.73h100.87c1.51,0,2.73-1.22,2.73-2.73v-17.77c0-1.51-1.22-2.73-2.73-2.73h-129.75c-.36,0-.71.07-1.05.21-2.8,1.15-15.79,7.2-19.4,22.07-.06.24-.09.5-.09.75Zm175.12,83.18h26.02c.87,0,1.67-.5,2.05-1.29l39.03-80.44c.38-.79,1.18-1.29,2.05-1.29h2.9c.85,0,1.63.48,2.03,1.23l14.92,28.78c.79,1.52-.32,3.33-2.03,3.33h-23.74c-1.24,0-2.26,1-2.28,2.24l-.21,11.74c-.02,1.28,1.01,2.32,2.28,2.32h32.88c.87,0,1.66.49,2.04,1.27l15.29,30.82c.39.78,1.18,1.27,2.04,1.27h42.3c1.26,0,2.28-1.02,2.28-2.28v-7.22c0-.38-.09-.75-.27-1.08l-48.98-91.31c-.26-.49-.7-.87-1.22-1.06l-8.47-3.12c-.25-.09-.52-.14-.79-.14h-41.99c-.25,0-.5.04-.73.12l-8.88,3c-.56.19-1.02.59-1.3,1.11l-49.27,95.36c-.17.32-.25.68-.25,1.05v3.28c0,1.26,1.02,2.28,2.28,2.28Z"/>
      </g>
    </g>
  </g>
</svg>