<svg xmlns="http://www.w3.org/2000/svg" xmlns:xlink="http://www.w3.org/1999/xlink" width="248" height="65" viewBox="0 0 248 65">
  <defs>
    <clipPath id="clip-path">
      <rect id="Rectangle_19" data-name="Rectangle 19" width="248" height="65" transform="translate(0 0)" fill="none"/>
    </clipPath>
  </defs>
  <g id="JOFFROY_LOGO" data-name="JOFFROY LOGO" transform="translate(0 0)">
    <g id="Group_51" data-name="Group 51">
      <g id="Group_50" data-name="Group 50" clip-path="url(#clip-path)">
        <path id="Path_1184" data-name="Path 1184" d="M63.59,36.721c0,4.094-2.034,6.823-5.733,6.823-3.082,0-5.3-2.109-6.226-4.962l-6.411,2.79c1.725,5.024,6.473,8.436,12.76,8.436,7.645,0,12.269-5.024,12.269-13.522V3.91H63.59Z" fill="#001733"/>
        <path id="Path_1185" data-name="Path 1185" d="M89.974,14.951A17.429,17.429,0,1,0,107.3,32.38,17.313,17.313,0,0,0,89.974,14.951m0,28.593c-6.041,0-10.665-4.962-10.665-11.165s4.624-11.165,10.665-11.165A10.894,10.894,0,0,1,100.7,32.38,10.854,10.854,0,0,1,89.974,43.544" fill="#001733"/>
        <path id="Path_1186" data-name="Path 1186" d="M130.816,13.471v1.923H118.267V13.533c0-6.264.863-7.319,7.273-7.319h1.11V.011h-1.6c-10.3,0-13.316,3.1-13.316,13.46v1.923h-5.8V21.41h5.8V49.766h6.535V21.41h12.549V49.766h6.535V21.41h8.385V15.394h-8.385V13.533c0-6.264.864-7.319,7.274-7.319h1.11V.011h-1.6c-10.3,0-13.316,3.1-13.316,13.46" fill="#001733"/>
        <path id="Path_1187" data-name="Path 1187" d="M163.644,14.9c-4.254,0-7.644,2.109-9.062,6.326v-5.83h-6.535V49.765h6.658V30.031c0-6.016,3.02-8.373,7.767-8.373a7.46,7.46,0,0,1,4.192.993l2.589-6.45a11.038,11.038,0,0,0-5.61-1.3" fill="#001733"/>
        <path id="Path_1188" data-name="Path 1188" d="M184.824,15.17A17.429,17.429,0,1,0,202.148,32.6,17.313,17.313,0,0,0,184.824,15.17m0,28.593c-6.042,0-10.666-4.962-10.666-11.165s4.624-11.165,10.666-11.165A10.893,10.893,0,0,1,195.551,32.6a10.854,10.854,0,0,1-10.726,11.165" fill="#001733"/>
        <path id="Path_1189" data-name="Path 1189" d="M216.767,39.4l-10.155-24.38h-7.15l13.852,32.257L206.388,65h6.105l21.075-49.982h-7.09Z" fill="#001733"/>
        <path id="Path_1190" data-name="Path 1190" d="M248,20.033a5.305,5.305,0,0,1-.4,2.092,4.927,4.927,0,0,1-4.563,3.022,5.1,5.1,0,0,1-2.015-.39,4.72,4.72,0,0,1-1.572-1.073,4.944,4.944,0,0,1-1.031-1.621,5.415,5.415,0,0,1-.374-2.03,5.313,5.313,0,0,1,.4-2.092,4.833,4.833,0,0,1,2.678-2.652,5.045,5.045,0,0,1,1.913-.369,4.961,4.961,0,0,1,1.892.369,4.85,4.85,0,0,1,2.671,2.652,5.312,5.312,0,0,1,.4,2.092m-1.085,0a4.735,4.735,0,0,0-.3-1.709,4.028,4.028,0,0,0-.827-1.339,3.724,3.724,0,0,0-2.753-1.176,3.851,3.851,0,0,0-1.539.307,3.717,3.717,0,0,0-1.241.869,4.014,4.014,0,0,0-.828,1.339,4.736,4.736,0,0,0-.3,1.709,4.889,4.889,0,0,0,.272,1.641,4.007,4.007,0,0,0,.781,1.339,3.688,3.688,0,0,0,1.227.909,4.015,4.015,0,0,0,3.146.028,3.75,3.75,0,0,0,1.234-.869,4.041,4.041,0,0,0,.827-1.333,4.712,4.712,0,0,0,.3-1.716m-4.883,2.926h-.923V17.3h2.13a2.558,2.558,0,0,1,1.532.383,1.449,1.449,0,0,1,.516,1.244,1.389,1.389,0,0,1-.421,1.121,1.892,1.892,0,0,1-1.044.424l1.573,2.487h-1.044l-1.452-2.42h-.868Zm1.031-3.213c.171,0,.337-.006.495-.02a1.067,1.067,0,0,0,.414-.116.762.762,0,0,0,.285-.267.908.908,0,0,0,.108-.485.66.66,0,0,0-.115-.411.777.777,0,0,0-.292-.232,1.178,1.178,0,0,0-.394-.1c-.144-.014-.285-.021-.42-.021h-1.112v1.654Z" fill="#001733"/>
        <path id="Path_1191" data-name="Path 1191" d="M35.776,25v6.7L18.781,47.067A11.368,11.368,0,0,1,6.82,49.137,11.139,11.139,0,0,1,3.276,46.81,10.951,10.951,0,0,1,.883,43.352,10.685,10.685,0,0,1,0,39.111V25H8.861V39.118a2.277,2.277,0,0,0,2.3,2.242,2.337,2.337,0,0,0,1.581-.6L29.519,25Z" fill="#001733"/>
        <path id="Path_1192" data-name="Path 1192" d="M44.636,10.888V25h-8.86V10.881a2.278,2.278,0,0,0-2.3-2.242,2.329,2.329,0,0,0-1.574.606L15.117,25H8.86V18.3L25.855,2.932A11.292,11.292,0,0,1,33.473,0a11.434,11.434,0,0,1,4.343.854,11.123,11.123,0,0,1,3.551,2.334,10.851,10.851,0,0,1,2.387,3.458,10.544,10.544,0,0,1,.883,4.242" fill="#00a6dd"/>
      </g>
    </g>
  </g>
</svg>
